REM DIRINDEX 1\2,1\3,1\4,1\5
REM DIRNAME "folder01","folder02","folder03","folder04","folder05"
TITLE ""
FILE "1Q_t_0678-0687.mp3" MP3
  TRACK 01 AUDIO
    TITLE "3:cjc172_2973"
    INDEX 01 00:00:00
  TRACK 02 AUDIO
    TITLE "0:"
    INDEX 01 00:01:29
  TRACK 03 AUDIO
    TITLE "4:cjc172_2974"
    INDEX 01 00:01:39
  TRACK 04 AUDIO
    TITLE "0:"
    INDEX 01 00:04:24
  TRACK 05 AUDIO
    TITLE "5:cjc172_2975"
    INDEX 01 00:04:34
  TRACK 06 AUDIO
    TITLE "0:"
    INDEX 01 00:10:22
  TRACK 07 AUDIO
    TITLE "3:cjc172_2976"
    INDEX 01 00:10:67
  TRACK 08 AUDIO
    TITLE "0:"
    INDEX 01 00:12:27
  TRACK 09 AUDIO
    TITLE "4:cjc172_2977"
    INDEX 01 00:12:35
  TRACK 10 AUDIO
    TITLE "0:"
    INDEX 01 00:13:64
  TRACK 11 AUDIO
    TITLE "5:cjc172_2978"
    INDEX 01 00:13:70
  TRACK 12 AUDIO
    TITLE "0:"
    INDEX 01 00:19:66
  TRACK 13 AUDIO
    TITLE "3:cjc172_2979"
    INDEX 01 00:20:37
  TRACK 14 AUDIO
    TITLE "0:"
    INDEX 01 00:21:40
  TRACK 15 AUDIO
    TITLE "4:cjc172_2980"
    INDEX 01 00:21:48
  TRACK 16 AUDIO
    TITLE "0:"
    INDEX 01 00:24:28
  TRACK 17 AUDIO
    TITLE "5:cjc172_2981"
    INDEX 01 00:24:34
  TRACK 18 AUDIO
    TITLE "0:"
    INDEX 01 00:30:06
  TRACK 19 AUDIO
    TITLE "3:cjc172_2982"
    INDEX 01 00:30:49
  TRACK 20 AUDIO
    TITLE "0:"
    INDEX 01 00:32:04
  TRACK 21 AUDIO
    TITLE "4:cjc172_2983"
    INDEX 01 00:32:12
  TRACK 22 AUDIO
    TITLE "0:"
    INDEX 01 00:33:51
  TRACK 23 AUDIO
    TITLE "5:cjc172_2984"
    INDEX 01 00:33:57
  TRACK 24 AUDIO
    TITLE "0:"
    INDEX 01 00:39:67
  TRACK 25 AUDIO
    TITLE "3:cjc172_2985"
    INDEX 01 00:40:37
  TRACK 26 AUDIO
    TITLE "0:"
    INDEX 01 00:41:50
  TRACK 27 AUDIO
    TITLE "4:cjc172_2986"
    INDEX 01 00:41:60
  TRACK 28 AUDIO
    TITLE "0:"
    INDEX 01 00:44:27
  TRACK 29 AUDIO
    TITLE "5:cjc172_2987"
    INDEX 01 00:44:35
  TRACK 30 AUDIO
    TITLE "0:"
    INDEX 01 00:50:02
  TRACK 31 AUDIO
    TITLE "3:cjc172_2988"
    INDEX 01 00:50:51
  TRACK 32 AUDIO
    TITLE "0:"
    INDEX 01 00:52:07
  TRACK 33 AUDIO
    TITLE "4:cjc172_2989"
    INDEX 01 00:52:19
  TRACK 34 AUDIO
    TITLE "0:"
    INDEX 01 00:53:67
  TRACK 35 AUDIO
    TITLE "5:cjc172_2990"
    INDEX 01 00:53:73
  TRACK 36 AUDIO
    TITLE "0:"
    INDEX 01 00:59:09
  TRACK 37 AUDIO
    TITLE "3:cjc172_2991"
    INDEX 01 00:59:54
  TRACK 38 AUDIO
    TITLE "0:"
    INDEX 01 01:01:16
  TRACK 39 AUDIO
    TITLE "4:cjc172_2992"
    INDEX 01 01:01:24
  TRACK 40 AUDIO
    TITLE "0:"
    INDEX 01 01:03:07
  TRACK 41 AUDIO
    TITLE "5:cjc172_2993"
    INDEX 01 01:03:15
  TRACK 42 AUDIO
    TITLE "0:"
    INDEX 01 01:09:41
  TRACK 43 AUDIO
    TITLE "3:cjc172_2994"
    INDEX 01 01:10:17
  TRACK 44 AUDIO
    TITLE "0:"
    INDEX 01 01:11:20
  TRACK 45 AUDIO
    TITLE "4:cjc172_2995"
    INDEX 01 01:11:30
  TRACK 46 AUDIO
    TITLE "0:"
    INDEX 01 01:12:41
  TRACK 47 AUDIO
    TITLE "5:cjc172_2996"
    INDEX 01 01:12:49
  TRACK 48 AUDIO
    TITLE "0:"
    INDEX 01 01:17:33
  TRACK 49 AUDIO
    TITLE "3:cjc172_2997"
    INDEX 01 01:18:03
  TRACK 50 AUDIO
    TITLE "0:"
    INDEX 01 01:19:12
  TRACK 51 AUDIO
    TITLE "4:cjc172_2998"
    INDEX 01 01:19:22
  TRACK 52 AUDIO
    TITLE "0:"
    INDEX 01 01:22:59
  TRACK 53 AUDIO
    TITLE "5:cjc172_2999"
    INDEX 01 01:22:67
  TRACK 54 AUDIO
    TITLE "0:"
    INDEX 01 01:27:09
  TRACK 55 AUDIO
    TITLE "3:cjc172_3000"
    INDEX 01 01:27:54
  TRACK 56 AUDIO
    TITLE "0:"
    INDEX 01 01:28:68
  TRACK 57 AUDIO
    TITLE "4:cjc172_3001"
    INDEX 01 01:29:00
  TRACK 58 AUDIO
    TITLE "0:"
    INDEX 01 01:30:10
  TRACK 59 AUDIO
    TITLE "5:cjc172_3002"
    INDEX 01 01:30:16
  TRACK 60 AUDIO
    TITLE "0:"
    INDEX 01 01:36:53
